/* XPM */
static char *customCursorXPM[] = {
"32 32 3 1",
" 	c None",
".	c #FFFFFF",
"+	c #000000",
"                                ",
"                                ",
"                                ",
"                                ",
"                                ",
"                                ",
"                +               ",
"               +.+              ",
"               +.+              ",
"               +.+              ",
"               +.+              ",
"               +.+              ",
"               +.+              ",
"               +.+              ",
"               +.+              ",
"       +++++++++.+++++++++      ",
"      +.........+.........+     ",
"       +++++++++.+++++++++      ",
"               +.+              ",
"               +.+              ",
"               +.+              ",
"               +.+              ",
"               +.+              ",
"               +.+              ",
"               +.+              ",
"               +.+              ",
"                +               ",
"                                ",
"                                ",
"                                ",
"                                ",
"                                "};
